<mxfile host="Electron" modified="2023-06-13T14:32:21.224Z" agent="Mozilla/5.0 (Windows NT 10.0; Win64; x64) AppleWebKit/537.36 (KHTML, like Gecko) draw.io/21.2.8 Chrome/112.0.5615.165 Electron/24.2.0 Safari/537.36" etag="peGfoXHV5l_4i3hfDa1i" version="21.2.8" type="device">
  <diagram name="PÃ¡gina-1" id="l9eJF9iHAFBSrsCi96B-">
    <mxGraphModel dx="1621" dy="1680" grid="1" gridSize="10" guides="1" tooltips="1" connect="1" arrows="1" fold="1" page="1" pageScale="1" pageWidth="827" pageHeight="1169" math="0" shadow="0">
      <root>
        <mxCell id="0" />
        <mxCell id="1" parent="0" />
        <mxCell id="Ee1KypOcmhObWXmOv32B-1" value="&amp;lt;&amp;lt;abstract&amp;gt;&amp;gt;&lt;br&gt;Tarea" style="swimlane;fontStyle=1;align=center;verticalAlign=top;childLayout=stackLayout;horizontal=1;startSize=40;horizontalStack=0;resizeParent=1;resizeParentMax=0;resizeLast=0;collapsible=1;marginBottom=0;whiteSpace=wrap;html=1;" vertex="1" parent="1">
          <mxGeometry x="284" y="92" width="260" height="210" as="geometry" />
        </mxCell>
        <mxCell id="Ee1KypOcmhObWXmOv32B-2" value="- titulo:String&lt;br&gt;- descripcion: String&lt;br&gt;- completa: Boolean&lt;br&gt;- fechaVencimiento: Date&lt;br&gt;- etiqueta: String" style="text;strokeColor=none;fillColor=none;align=left;verticalAlign=top;spacingLeft=4;spacingRight=4;overflow=hidden;rotatable=0;points=[[0,0.5],[1,0.5]];portConstraint=eastwest;whiteSpace=wrap;html=1;" vertex="1" parent="Ee1KypOcmhObWXmOv32B-1">
          <mxGeometry y="40" width="260" height="80" as="geometry" />
        </mxCell>
        <mxCell id="Ee1KypOcmhObWXmOv32B-3" value="" style="line;strokeWidth=1;fillColor=none;align=left;verticalAlign=middle;spacingTop=-1;spacingLeft=3;spacingRight=3;rotatable=0;labelPosition=right;points=[];portConstraint=eastwest;strokeColor=inherit;" vertex="1" parent="Ee1KypOcmhObWXmOv32B-1">
          <mxGeometry y="120" width="260" height="8" as="geometry" />
        </mxCell>
        <mxCell id="Ee1KypOcmhObWXmOv32B-4" value="+ marcarTareaCompleta()&lt;br&gt;+ establecerVencimiento(fecha: Date)&lt;br&gt;+ agregarEtiquetas(etiqueta: String)&lt;br&gt;+&amp;lt;&amp;lt;abstract&amp;gt;&amp;gt; editarTarea()" style="text;strokeColor=none;fillColor=none;align=left;verticalAlign=top;spacingLeft=4;spacingRight=4;overflow=hidden;rotatable=0;points=[[0,0.5],[1,0.5]];portConstraint=eastwest;whiteSpace=wrap;html=1;" vertex="1" parent="Ee1KypOcmhObWXmOv32B-1">
          <mxGeometry y="128" width="260" height="82" as="geometry" />
        </mxCell>
        <mxCell id="Ee1KypOcmhObWXmOv32B-19" style="rounded=0;orthogonalLoop=1;jettySize=auto;html=1;endArrow=block;endFill=0;" edge="1" parent="1" source="Ee1KypOcmhObWXmOv32B-5" target="Ee1KypOcmhObWXmOv32B-1">
          <mxGeometry relative="1" as="geometry" />
        </mxCell>
        <mxCell id="Ee1KypOcmhObWXmOv32B-5" value="Simple" style="swimlane;fontStyle=1;align=center;verticalAlign=top;childLayout=stackLayout;horizontal=1;startSize=26;horizontalStack=0;resizeParent=1;resizeParentMax=0;resizeLast=0;collapsible=1;marginBottom=0;whiteSpace=wrap;html=1;" vertex="1" parent="1">
          <mxGeometry x="20" y="400" width="220" height="100" as="geometry" />
        </mxCell>
        <mxCell id="Ee1KypOcmhObWXmOv32B-7" value="" style="line;strokeWidth=1;fillColor=none;align=left;verticalAlign=middle;spacingTop=-1;spacingLeft=3;spacingRight=3;rotatable=0;labelPosition=right;points=[];portConstraint=eastwest;strokeColor=inherit;" vertex="1" parent="Ee1KypOcmhObWXmOv32B-5">
          <mxGeometry y="26" width="220" height="8" as="geometry" />
        </mxCell>
        <mxCell id="Ee1KypOcmhObWXmOv32B-8" value="+&amp;lt;&amp;lt;create&amp;gt;&amp;gt;Simple(titulo:String, descripcion:String):Simple&lt;br&gt;+ editarTarea(titulo: String, descripcion: String)" style="text;strokeColor=none;fillColor=none;align=left;verticalAlign=top;spacingLeft=4;spacingRight=4;overflow=hidden;rotatable=0;points=[[0,0.5],[1,0.5]];portConstraint=eastwest;whiteSpace=wrap;html=1;" vertex="1" parent="Ee1KypOcmhObWXmOv32B-5">
          <mxGeometry y="34" width="220" height="66" as="geometry" />
        </mxCell>
        <mxCell id="Ee1KypOcmhObWXmOv32B-20" style="rounded=0;orthogonalLoop=1;jettySize=auto;html=1;endArrow=block;endFill=0;" edge="1" parent="1" source="Ee1KypOcmhObWXmOv32B-9" target="Ee1KypOcmhObWXmOv32B-1">
          <mxGeometry relative="1" as="geometry" />
        </mxCell>
        <mxCell id="Ee1KypOcmhObWXmOv32B-9" value="Compleja" style="swimlane;fontStyle=1;align=center;verticalAlign=top;childLayout=stackLayout;horizontal=1;startSize=26;horizontalStack=0;resizeParent=1;resizeParentMax=0;resizeLast=0;collapsible=1;marginBottom=0;whiteSpace=wrap;html=1;" vertex="1" parent="1">
          <mxGeometry x="370" y="400" width="260" height="130" as="geometry" />
        </mxCell>
        <mxCell id="Ee1KypOcmhObWXmOv32B-10" value="- material:String&lt;br&gt;" style="text;strokeColor=none;fillColor=none;align=left;verticalAlign=top;spacingLeft=4;spacingRight=4;overflow=hidden;rotatable=0;points=[[0,0.5],[1,0.5]];portConstraint=eastwest;whiteSpace=wrap;html=1;" vertex="1" parent="Ee1KypOcmhObWXmOv32B-9">
          <mxGeometry y="26" width="260" height="26" as="geometry" />
        </mxCell>
        <mxCell id="Ee1KypOcmhObWXmOv32B-11" value="" style="line;strokeWidth=1;fillColor=none;align=left;verticalAlign=middle;spacingTop=-1;spacingLeft=3;spacingRight=3;rotatable=0;labelPosition=right;points=[];portConstraint=eastwest;strokeColor=inherit;" vertex="1" parent="Ee1KypOcmhObWXmOv32B-9">
          <mxGeometry y="52" width="260" height="8" as="geometry" />
        </mxCell>
        <mxCell id="Ee1KypOcmhObWXmOv32B-12" value="+&amp;lt;&amp;lt;create&amp;gt;&amp;gt;Compleja(titulo:String, descripcion:String):Compleja&lt;br&gt;+ editarTarea(titulo: String, descripcion: String, material:String, dependencias: Tarea[*])" style="text;strokeColor=none;fillColor=none;align=left;verticalAlign=top;spacingLeft=4;spacingRight=4;overflow=hidden;rotatable=0;points=[[0,0.5],[1,0.5]];portConstraint=eastwest;whiteSpace=wrap;html=1;" vertex="1" parent="Ee1KypOcmhObWXmOv32B-9">
          <mxGeometry y="60" width="260" height="70" as="geometry" />
        </mxCell>
        <mxCell id="Ee1KypOcmhObWXmOv32B-17" style="edgeStyle=orthogonalEdgeStyle;rounded=0;orthogonalLoop=1;jettySize=auto;html=1;" edge="1" parent="1" source="Ee1KypOcmhObWXmOv32B-13" target="Ee1KypOcmhObWXmOv32B-1">
          <mxGeometry relative="1" as="geometry" />
        </mxCell>
        <mxCell id="Ee1KypOcmhObWXmOv32B-13" value="ListaDeTareas" style="swimlane;fontStyle=1;align=center;verticalAlign=top;childLayout=stackLayout;horizontal=1;startSize=26;horizontalStack=0;resizeParent=1;resizeParentMax=0;resizeLast=0;collapsible=1;marginBottom=0;whiteSpace=wrap;html=1;" vertex="1" parent="1">
          <mxGeometry x="284" y="-190" width="260" height="100" as="geometry" />
        </mxCell>
        <mxCell id="Ee1KypOcmhObWXmOv32B-15" value="" style="line;strokeWidth=1;fillColor=none;align=left;verticalAlign=middle;spacingTop=-1;spacingLeft=3;spacingRight=3;rotatable=0;labelPosition=right;points=[];portConstraint=eastwest;strokeColor=inherit;" vertex="1" parent="Ee1KypOcmhObWXmOv32B-13">
          <mxGeometry y="26" width="260" height="8" as="geometry" />
        </mxCell>
        <mxCell id="Ee1KypOcmhObWXmOv32B-16" value="+ agregarTareaSimple(simple Simple)&lt;br&gt;+ agregarTareaCompleja(compleja Compleja)&lt;br&gt;+ eliminarTarea(tarea Tarea)&lt;br&gt;+ ordenarTareas()" style="text;strokeColor=none;fillColor=none;align=left;verticalAlign=top;spacingLeft=4;spacingRight=4;overflow=hidden;rotatable=0;points=[[0,0.5],[1,0.5]];portConstraint=eastwest;whiteSpace=wrap;html=1;" vertex="1" parent="Ee1KypOcmhObWXmOv32B-13">
          <mxGeometry y="34" width="260" height="66" as="geometry" />
        </mxCell>
        <mxCell id="Ee1KypOcmhObWXmOv32B-18" value="0..*&lt;br&gt;- tareas" style="text;html=1;align=center;verticalAlign=middle;resizable=0;points=[];autosize=1;strokeColor=none;fillColor=none;" vertex="1" parent="1">
          <mxGeometry x="410" y="-20" width="60" height="40" as="geometry" />
        </mxCell>
        <mxCell id="Ee1KypOcmhObWXmOv32B-25" style="edgeStyle=orthogonalEdgeStyle;rounded=0;orthogonalLoop=1;jettySize=auto;html=1;" edge="1" parent="1" source="Ee1KypOcmhObWXmOv32B-21" target="Ee1KypOcmhObWXmOv32B-1">
          <mxGeometry relative="1" as="geometry" />
        </mxCell>
        <mxCell id="Ee1KypOcmhObWXmOv32B-32" style="edgeStyle=orthogonalEdgeStyle;rounded=0;orthogonalLoop=1;jettySize=auto;html=1;" edge="1" parent="1" source="Ee1KypOcmhObWXmOv32B-21" target="Ee1KypOcmhObWXmOv32B-13">
          <mxGeometry relative="1" as="geometry">
            <Array as="points">
              <mxPoint y="-130" />
            </Array>
          </mxGeometry>
        </mxCell>
        <mxCell id="Ee1KypOcmhObWXmOv32B-21" value="Proyecto" style="swimlane;fontStyle=1;align=center;verticalAlign=top;childLayout=stackLayout;horizontal=1;startSize=26;horizontalStack=0;resizeParent=1;resizeParentMax=0;resizeLast=0;collapsible=1;marginBottom=0;whiteSpace=wrap;html=1;" vertex="1" parent="1">
          <mxGeometry x="-110" y="122" width="250" height="150" as="geometry" />
        </mxCell>
        <mxCell id="Ee1KypOcmhObWXmOv32B-22" value="- titulo:String&lt;br&gt;- descripcion: String" style="text;strokeColor=none;fillColor=none;align=left;verticalAlign=top;spacingLeft=4;spacingRight=4;overflow=hidden;rotatable=0;points=[[0,0.5],[1,0.5]];portConstraint=eastwest;whiteSpace=wrap;html=1;" vertex="1" parent="Ee1KypOcmhObWXmOv32B-21">
          <mxGeometry y="26" width="250" height="34" as="geometry" />
        </mxCell>
        <mxCell id="Ee1KypOcmhObWXmOv32B-23" value="" style="line;strokeWidth=1;fillColor=none;align=left;verticalAlign=middle;spacingTop=-1;spacingLeft=3;spacingRight=3;rotatable=0;labelPosition=right;points=[];portConstraint=eastwest;strokeColor=inherit;" vertex="1" parent="Ee1KypOcmhObWXmOv32B-21">
          <mxGeometry y="60" width="250" height="8" as="geometry" />
        </mxCell>
        <mxCell id="Ee1KypOcmhObWXmOv32B-24" value="+&amp;lt;&amp;lt;create&amp;gt;&amp;gt;Proyecto(titulo:String, descripcion:String):Proyecto&lt;br&gt;+ agregarListaDeTareas(listaDeTareas: ListaDeTareas)&lt;br&gt;+ tareasDelProyecto(): Tarea[*]" style="text;strokeColor=none;fillColor=none;align=left;verticalAlign=top;spacingLeft=4;spacingRight=4;overflow=hidden;rotatable=0;points=[[0,0.5],[1,0.5]];portConstraint=eastwest;whiteSpace=wrap;html=1;" vertex="1" parent="Ee1KypOcmhObWXmOv32B-21">
          <mxGeometry y="68" width="250" height="82" as="geometry" />
        </mxCell>
        <mxCell id="Ee1KypOcmhObWXmOv32B-26" value="0..*&lt;br&gt;- tareas" style="text;html=1;align=center;verticalAlign=middle;resizable=0;points=[];autosize=1;strokeColor=none;fillColor=none;" vertex="1" parent="1">
          <mxGeometry x="180" y="160" width="60" height="40" as="geometry" />
        </mxCell>
        <mxCell id="Ee1KypOcmhObWXmOv32B-30" style="edgeStyle=orthogonalEdgeStyle;rounded=0;orthogonalLoop=1;jettySize=auto;html=1;" edge="1" parent="1" source="Ee1KypOcmhObWXmOv32B-10" target="Ee1KypOcmhObWXmOv32B-1">
          <mxGeometry relative="1" as="geometry">
            <Array as="points">
              <mxPoint x="760" y="439" />
              <mxPoint x="760" y="180" />
            </Array>
          </mxGeometry>
        </mxCell>
        <mxCell id="Ee1KypOcmhObWXmOv32B-31" value="0..*&lt;br&gt;- dependencias" style="text;html=1;align=center;verticalAlign=middle;resizable=0;points=[];autosize=1;strokeColor=none;fillColor=none;" vertex="1" parent="1">
          <mxGeometry x="750" y="262" width="110" height="40" as="geometry" />
        </mxCell>
        <mxCell id="Ee1KypOcmhObWXmOv32B-33" value="0..*&lt;br&gt;- listaDeTareas" style="text;html=1;align=center;verticalAlign=middle;resizable=0;points=[];autosize=1;strokeColor=none;fillColor=none;" vertex="1" parent="1">
          <mxGeometry x="60" y="-167" width="100" height="40" as="geometry" />
        </mxCell>
      </root>
    </mxGraphModel>
  </diagram>
</mxfile>
